<svg xmlns="http://www.w3.org/2000/svg" xmlns:svg="http://www.w3.org/2000/svg" id="svg4327" width="64" height="64" version="1.1" viewBox="0 0 64 64"><metadata id="metadata4333"/><g style="stroke:none;stroke-opacity:1;fill:#444;fill-opacity:1" id="g4343" transform="matrix(0.14112391,0,0,0.14112391,-1.2478719,-1.9769276)"><path style="fill:#444;fill-opacity:1;fill-rule:evenodd;stroke:none;stroke-width:1px;stroke-linecap:butt;stroke-linejoin:miter;stroke-opacity:0" id="path4337" d="m 251.00767,168.05972 207.00918,0 -14.45509,53.38647 -74.98442,0 -46.50345,175.08676 -65.60499,0 46.80389,-175.08676 -65.96956,0 z"/><path style="fill:#444;fill-opacity:1;fill-rule:evenodd;stroke:none;stroke-width:1px;stroke-linecap:butt;stroke-linejoin:miter;stroke-opacity:1" id="path4339" d="m 110.35681,172.38744 64.19449,0 -21.50058,80.24125 75.59706,0 8.59394,-29.29073 64.04979,0 -47.31057,173.19499 -62.84005,0 24.37007,-90.36217 -74.86011,0 -23.14917,90.36217 -67.011634,0 z"/><path style="fill:#444;fill-opacity:1;fill-rule:evenodd;stroke:none;stroke-width:1px;stroke-linecap:butt;stroke-linejoin:miter;stroke-opacity:1" id="path4341" d="M 64.915773,254.61409 C 2.1526035,173.1358 117.5231,116.19731 230.62288,106.41004 c 166.86971,-14.440327 231.72168,43.61753 231.72168,43.61753 0,0 -52.97502,-78.316586 -271.17807,-63.073642 C 64.341256,95.813519 -69.690211,177.00748 64.915773,254.61409 Z"/></g></svg>